<?xml version="1.0" encoding="utf-8"?>
<!-- Generator: Adobe Illustrator 25.3.1, SVG Export Plug-In . SVG Version: 6.00 Build 0)  -->
<svg version="1.1" id="圖層_1" xmlns="http://www.w3.org/2000/svg" xmlns:xlink="http://www.w3.org/1999/xlink" x="0px" y="0px"
	 viewBox="0 0 795 154.3" style="enable-background:new 0 0 795 154.3;" xml:space="preserve">
<style type="text/css">
	.st0{fill:#FFFFFF;}
</style>
<g>
	<path class="st0" d="M405.2,67.4c4.9-8.6,12.9-11.6,22.1-12c6.7-0.3,13,1.1,18.8,4.8c6.2,4.1,10.1,10,12.5,17
		c1.8,5.3,2.5,10.7,2.9,16.2c0.3,7.5-0.2,14.9-2.1,22.2c-1.5,5.8-4,11.2-8.2,15.5c-4.1,4.3-9.2,6.9-14.9,8c-7,1.3-13.9,1.2-20.6-1.6
		c-4.4-1.9-8-4.9-10.6-8.9c-0.3-0.5-0.7-1.1-1-1.6c0,0-0.1-0.1-0.2-0.1c-0.4,0.2-0.2,0.7-0.2,1c0,3-0.1,5.8,0,8.8
		c0,1.1-0.3,1.6-1.5,1.6c-6.7-0.1-13.5-0.1-20.3,0c-1.1,0-1.6-0.3-1.5-1.5c0-0.3,0-0.6,0-0.9c0-39.1,0-78.3,0-117.5
		c0-2.4,0-2.3,2.3-2.5c6.4-0.5,12.8-1.1,19.2-1.7c3.3-0.3,3.3-0.4,3.3,2.8c0,16.3,0,32.6,0,48.9C405.1,66.5,405,67,405.2,67.4z
		 M405.1,97.7c0,3-0.1,5.3,0,7.5c0.2,4.2,1.4,8.1,4.4,11.2c4.6,4.8,10.3,5.3,16.5,3.9c1.6-0.3,3.2-1.1,4.5-2.3
		c2.7-2.2,4.4-5.1,5.2-8.4c1.8-8,1.8-16.1-0.3-24.1c-0.7-2.4-1.7-4.5-3.4-6.3c-3.8-4.3-8.7-4.8-13.9-4c-6.7,1-11.1,5.6-12.5,12.5
		C404.8,91.2,405.2,94.8,405.1,97.7z"/>
	<path class="st0" d="M674.3,95.2c1.6-2.6,3.3-5.3,4.9-7.9c6.2-9.8,12.3-19.6,18.5-29.4c0.4-0.7,0.9-0.9,1.6-0.9c8,0,15.8,0,23.8,0
		c1.4,0,1,0.6,0.6,1.3c-5.3,8.3-10.4,16.6-15.7,24.8c-2.7,4.3-5.5,8.7-8.3,13c-0.7,1-0.6,1.7,0,2.6c8.3,12.8,16.6,25.6,24.8,38.4
		c0.2,0.3,0.7,0.7,0.5,1.1c-0.2,0.4-0.8,0.2-1.2,0.2c-7.8,0-15.5,0-23.2,0c-1,0-1.6-0.3-2.1-1.1c-7.5-12-15.2-23.9-22.8-35.8
		c-0.4-0.7-0.8-1.3-1.4-2.1c-0.3,0.7-0.2,1.1-0.2,1.7c0,11.8,0,23.6,0,35.4c0,2,0,2-1.9,2c-7.1,0-14.1,0-21.2,0
		c-1.7,0-1.7,0-1.7-1.7c0-39.5,0-79.2,0-118.8c0-1.1,0.2-1.7,1.4-1.8c7.2-0.6,14.4-1.2,21.6-1.8c1.8-0.2,1.8-0.1,1.8,1.7
		c0,25.8,0,51.4,0,77.2c0,0.6,0,1.1,0,1.8C674,95.1,674.2,95.2,674.3,95.2z"/>
	<path class="st0" d="M192,68.5c0-3.2,0-6.5,0-9.7c0-1.8,0-1.9,1.8-1.9c6.6,0,13.4,0,20,0c1.6,0,1.6,0.1,1.6,1.6c0,26,0,52,0,78.1
		c0,1.7,0,1.7-1.7,1.7c-6.7,0-13.5,0-20.2,0c-1.3,0-1.7-0.3-1.7-1.6c0.1-3.1,0-6.2,0-9.4c-0.6,0.1-0.7,0.5-0.8,0.8
		c-4.7,7.8-11.7,11.6-20.8,11.8c-5,0.2-9.8-0.2-14.6-2.1c-7.7-2.9-13-8.3-16.2-15.7c-2.5-5.8-3.8-11.9-4.2-18.2
		c-0.5-7.1-0.4-14.2,1.1-21.2c1.6-7.3,4.3-13.9,9.8-19.3c4.8-4.8,10.7-7.1,17.3-7.9c4.3-0.5,8.5-0.6,12.7,0.6
		c6.6,1.7,11.6,5.6,14.9,11.5c0.2,0.2,0.3,0.5,0.4,0.7C191.7,68.6,191.8,68.6,192,68.5z M190.8,98.9c0-4.1,0.2-8.3-0.7-12.3
		c-2.3-10.7-14.6-15.6-23.5-9.3c-3,2.1-4.6,5.3-5.6,8.8c-1.8,6.6-1.6,13.2-0.9,19.9c0.3,3.3,1.3,6.3,3.1,9.1
		c3.7,5.4,9.2,6.5,15.1,5.6c6.2-0.9,10.6-5.7,11.9-12.1C191,105.3,190.8,102.1,190.8,98.9z"/>
	<path class="st0" d="M598.9,55.5c7.5-0.1,14.3,1,20.7,3.9c9.4,4.3,15.3,11.6,18,21.4c3.4,12.1,3.4,24.4-0.8,36.3
		c-3.9,11-11.6,18-22.9,21.1c-10.9,3-21.8,2.7-32.5-1.2c-9.8-3.6-16.4-10.7-19.6-20.6c-3.9-11.8-4.1-23.8-0.7-35.7
		c3.9-13.5,13.2-21.4,26.9-24.3C591.8,55.7,595.7,55.3,598.9,55.5z M615.4,97.6c-0.2-2.7,0.2-5.8-0.3-8.9c-0.8-4.7-2.6-8.8-6.8-11.4
		c-7.9-4.8-21.9-3.3-24.3,10.9c-1.1,6.4-0.9,12.9,0,19.3c0.6,4.2,2.4,7.8,5.7,10.5c6.9,5.4,21.2,4.3,24.8-8.6
		C615.6,105.6,615.4,101.7,615.4,97.6z"/>
	<path class="st0" d="M469.7,95.4c0-4.8,0.8-11.4,3.2-17.6c4-10.5,11.5-17.4,22.4-20.4c9.8-2.8,19.8-2.9,29.6-0.1
		c11.6,3.3,19.5,10.8,23.2,22.4c3.8,11.9,3.7,23.9,0.1,35.8c-4.1,13.4-13.5,21-27.1,23.6c-8.4,1.6-17,1.4-25.3-0.9
		c-12.7-3.5-20.6-11.8-24-24.4C470.2,108.5,469.7,102.9,469.7,95.4z M526.1,97.7c0-2.5,0.1-5.1,0-7.6c-0.1-1.2-0.4-2.5-0.7-3.6
		c-2.9-10.7-15.3-15.3-24.3-8.9c-3.7,2.5-5.7,6.2-6.2,10.6c-0.9,6.2-0.8,12.5-0.1,18.7c0.4,3.4,1.6,6.7,4,9.4
		c4,4.4,9.2,5.5,14.8,4.4c6.3-1.1,10.7-5.7,12.1-12.5C526.4,104.7,526.2,101.2,526.1,97.7z"/>
	<path class="st0" d="M344.1,106.3c-8,0-16.1,0-24.1,0c-1.7,0-1.8,0.1-1.5,1.8c0.2,1.3,0.5,2.7,0.9,3.9c1.6,5.5,5.3,8.6,10.9,9.7
		c7,1.3,13.8,0.7,20.7-0.6c3.9-0.7,7.7-1.8,11.4-3.3c0.9-0.3,1.4-0.2,1.6,0.8c1.3,4.8,2.6,9.5,3.9,14.3c0.2,1,0,1.4-0.8,1.8
		c-4.8,2.3-9.8,3.5-14.9,4.3c-6,1-12.1,1.5-18.2,1.3c-6.4-0.2-12.6-0.9-18.7-3.2c-10.6-3.9-17-11.6-19.8-22.3
		c-1.2-4.5-1.8-9.2-1.8-13.9c0-5.9-0.2-11.7,1-17.6c1.5-7.1,4.3-13.3,9.6-18.4c4.2-3.9,9.2-6.6,14.8-8c8.7-2.2,17.6-2.5,26.3-0.4
		c13.4,3.1,21,11.7,23.7,24.9c0.7,3.4,1.1,6.9,1,10.4c0,4.2,0,8.4,0,12.5c0,1.3-0.4,1.7-1.6,1.7
		C360.3,106.3,352.2,106.3,344.1,106.3z M333.2,90.4c4.5,0,9.1,0,13.7,0c1,0,1.6-0.2,1.5-1.4c-0.2-3.2-0.4-6.4-1.8-9.4
		c-1.5-3.1-3.7-5.4-7.1-6.6c-2.7-1-5.4-1-8.2-0.7c-3.8,0.4-7.1,1.9-9.4,5.1c-2.5,3.5-3.3,7.5-3.6,11.8c-0.1,1.1,0.7,1.1,1.4,1.1
		C324.1,90.4,328.6,90.4,333.2,90.4z"/>
	<path class="st0" d="M88.4,107.8c0-9.6,0-19.2,0-28.8c0-1.8,0-1.8-1.8-1.8c-4.4,0-8.9,0-13.5,0c-1.6,0-1.6-0.1-1.6-1.6
		c0-5.6,0-11.2,0-16.8c0-1.6,0.1-1.6,1.7-1.6c4.4,0,8.9,0,13.5,0c1.2,0,1.7-0.3,1.7-1.6c-0.1-4.8-0.1-9.7,0-14.5
		c0.1-5.3,1.1-10.3,3.8-14.8c3.4-5.7,8.6-8.9,14.8-10.6c5.7-1.5,11.5-1.9,17.3-1.4c2.7,0.2,5.4,0.4,8.1,0.7c1.1-0.1,1.5,0.4,1.5,1.4
		c0,5.3,0,10.7,0,15.9c0,1-0.4,1.3-1.4,1.3c-3.4,0-6.9-0.2-10.3,0.2c-0.9,0.1-1.9,0.2-2.8,0.4c-3.9,0.9-6.1,3.4-6.2,7.4
		c-0.2,4.8,0,9.4-0.1,14.2c0,1.1,0.7,1.2,1.5,1.2c5.7,0,11.3,0,17,0c1.8,0,1.9,0.2,1.7,1.9c-0.5,5.3-1,10.7-1.5,16.1
		c-0.2,2.1-0.2,2.1-2.2,2.1c-4.9,0-9.8,0-14.7,0c-1.7,0-1.8,0-1.8,1.8c0,19,0,38,0,57c0,0.4,0,0.8,0,1.3c0,0.9-0.4,1.2-1.2,1.1
		c-2.1,0-4.1,0-6.2,0c-5.3,0-10.6,0-15.8,0c-1.2,0-1.6-0.4-1.6-1.6C88.4,127.2,88.4,117.5,88.4,107.8z"/>
	<path class="st0" d="M249.5,97.2c0,3.7-0.1,6.7,0.5,9.8c1.6,8,8,13.4,16.1,14c6.2,0.5,11.8-0.9,17.4-3.2c1.1-0.5,1.6-0.2,1.9,0.9
		c1.6,4.9,3.2,9.8,4.8,14.7c0.3,1,0.1,1.5-0.7,2c-3.8,2.2-8,3.3-12.2,3.9c-8.4,1.2-16.7,1.1-24.9-0.7c-14.8-3.5-23.5-12.9-26.3-27.8
		c-1.2-6.5-1.2-13.1-0.8-19.7c0.3-5.4,1.4-10.6,3.6-15.6c3.7-8.4,10-13.9,18.5-17c7.8-2.8,15.8-3.4,24-2.9
		c5.3,0.3,10.4,1.2,15.3,3.1c1.1,0.4,2.1,1,3.2,1.6c0.7,0.3,0.8,0.7,0.6,1.5c-1.7,5.3-3.4,10.4-5.1,15.7c-0.2,0.7-0.6,1-1.4,0.7
		c-4.3-2-8.7-3.1-13.5-3.4c-5.8-0.3-11.3,0.7-15.8,4.8c-3,2.8-4.5,6.4-5,10.5C249.3,92.6,249.6,95.3,249.5,97.2z"/>
</g>
</svg>
