<?xml version="1.0" encoding="utf-8"?>
<!-- Generator: Adobe Illustrator 25.3.1, SVG Export Plug-In . SVG Version: 6.00 Build 0)  -->
<svg version="1.1" id="圖層_1" xmlns="http://www.w3.org/2000/svg" xmlns:xlink="http://www.w3.org/1999/xlink" x="0px" y="0px"
	 viewBox="0 0 605 199.3" style="enable-background:new 0 0 605 199.3;" xml:space="preserve">
<style type="text/css">
	.st0{fill:#FFFFFF;}
</style>
<g>
	<path class="st0" d="M81.1,0c3.2,0.4,6.5,0.6,9.7,1.1c14.5,2.4,27.3,8.3,38.3,18.1c0.1,0.1,0.1,0.1,0.2,0.2
		c1.8,1.7,1.9,1.7,0.1,3.6c-4,4.2-8.1,8.4-12.1,12.7c-0.8,0.8-1.3,0.9-2.2,0.1c-8-7.4-17.4-11.9-28.1-13.5
		c-16-2.5-30.6,1.3-43.3,11.5c-11.5,9.4-18,21.7-19.8,36.4c-1.4,11.9,0.3,23.3,6.1,33.9c7.4,13.4,18.5,22.4,33.2,26.6
		c13.5,3.8,26.8,2.8,39.6-3c13.9-6.3,22.2-17.1,24.8-32.1c0.2-1,0.3-2.1,0.5-3.1c0.1-0.8-0.2-1.1-0.9-1.1c-0.4,0-0.9,0-1.4,0
		c-15.1,0-30.3,0-45.4,0c-2.1,0-2.1,0-2.1-2.1c0-5.8,0-11.6,0-17.4c0-1.3,0.4-1.9,1.8-1.9c22.5,0,45,0,67.5,0c1.3,0,1.8,0.5,2,1.7
		c2.9,21.5-0.9,41.4-15,58.5c-8.2,9.9-18.7,16.4-30.9,20.4c-9.6,3.1-19.5,4.3-29.6,3.6c-28-2.1-49.3-15.2-63.7-39.3
		c-5.8-9.6-9-20.2-10.1-31.3c-1.2-12.7,1-24.9,6.2-36.5c7-15.6,17.9-27.9,32.7-36.6C49.7,4.3,61,0.9,73.2,0.2c0.5,0,1-0.2,1.5-0.2
		C76.8,0,79,0,81.1,0z"/>
	<path class="st0" d="M447.3,65.5c0-2,0-3.9,0-5.8c0-1.2,0.4-1.7,1.6-1.7c6,0,12,0,18,0c1.2,0,1.7,0.4,1.6,1.6c0,0.3,0,0.6,0,0.9
		c0,28.7,0,57.3,0,86c0,7.8-0.9,15.5-3.5,22.9c-3.7,10.7-10.2,19-20.4,24.2c-5.6,2.9-11.7,4.5-18,5c-8.4,0.7-16.5-0.2-24.3-3.6
		c-9.5-4.1-16.7-10.8-22.1-19.5c-1-1.6-1.9-3.3-2.8-5c-0.4-0.8-0.3-1.3,0.6-1.6c5.7-2.4,11.4-4.7,17-7.1c1.2-0.5,1.5,0.2,1.9,1
		c2.2,4.5,5.2,8.4,9.3,11.4c9.9,7.4,25.7,6.2,34.2-2.6c2.7-2.8,4.4-6.2,5.5-9.9c1.8-6,1.1-12.2,1.2-18.3c-0.8,0.1-1,0.6-1.4,1
		c-6.5,6.9-14.6,9.8-23.8,10.1c-19.5,0.6-38.3-12.4-45.4-31.1c-5.3-14-4.8-28,2-41.3c8.1-15.7,21-25.2,38.9-26.8
		c10.8-1,20.6,2.1,28.6,9.8C446.5,65.1,446.6,65.5,447.3,65.5z M449.1,104.4c0.1-1-0.2-2.4-0.3-3.8c-0.8-7.2-3.4-13.6-8.7-18.6
		c-11.7-11.2-28.8-8.6-38.1,3c-8.1,10.1-8.9,25.6-2.1,36.7c9.2,14.9,29.5,17.2,41.4,4.6C446.9,120.2,448.8,112.8,449.1,104.4z"/>
	<path class="st0" d="M264.9,104.2c0-27.6,22-49.3,50.1-49.2c26,0.1,49.8,18.8,49.7,49.7c0,28.1-21.6,49.7-49.7,49.6
		C286.7,154.2,264.9,132.4,264.9,104.2z M287.2,104.6c-0.1,3,0.3,5.8,1,8.7c3.5,12.7,13.9,21.1,26.8,21.1c8.8,0,16.1-3.6,21.4-10.7
		c7-9.4,7.9-19.9,4.2-30.7c-5.7-16.6-25.9-23.5-40.5-13.8C291,85.2,287.2,94,287.2,104.6z"/>
	<path class="st0" d="M206.8,55c13.7,0.2,25.8,4.6,35.7,14.3c7.8,7.5,12.1,16.9,13.6,27.6c1.7,12.6-0.5,24.5-7.4,35.3
		c-5.4,8.4-12.8,14.3-21.9,18.2c-6.8,2.9-13.9,4.1-21.3,3.9c-25.3-0.8-44.6-18.1-48.1-42.4c-2.5-17.3,2.7-32.3,15.7-44.2
		c7.8-7.2,17.1-11,27.6-12.3c0.9-0.1,1.7-0.2,2.6-0.3C204.4,55,205.6,55,206.8,55z M234.5,107.1c0-8.5-1.4-14.1-4.5-19.2
		c-9.7-16.2-33.1-17.6-44.7-2.6c-8.6,11.1-8.6,27.6,0,38.7c8.5,11,24.5,13.8,36.1,6.1C230.5,124,234.3,115.2,234.5,107.1z"/>
	<path class="st0" d="M560.5,54.8c14.1,0.3,25.3,6.1,34.2,16.9c4.8,5.8,7.4,12.7,10.2,19.5c0.4,0.9-0.2,1.2-0.9,1.5
		c-5.6,2.3-11.3,4.7-16.9,7c-15.5,6.4-30.9,12.8-46.4,19.2c-1.7,0.7-1.7,0.7-0.7,2.4c5.1,8.6,12.6,12.9,22.7,13
		c10.1,0,17.8-4.1,23.5-12.2c0.8-1.1,1.3-1.2,2.4-0.5c4.9,3.3,9.8,6.6,14.7,9.8c1,0.6,1.2,1.1,0.4,2.1c-7.5,9.6-16.8,16.8-28.9,19.4
		c-17.9,3.8-33.9-0.2-47-13.3c-8.2-8.1-12.2-18.3-13.3-29.7c-0.8-8.5,0-16.8,3.1-24.8c6.6-16.8,18.8-26.9,36.7-29.8
		C556.3,54.9,558.4,55,560.5,54.8z M561.5,74.3c-4.3,0-7.4,0.7-11.7,3.2c-8.8,5.2-14.1,12.6-14.3,23.1c0,2.2,0,2.2,2.1,1.3
		c13.5-5.6,27-11.3,40.5-16.9c1.2-0.5,1.3-1,0.6-2C574.5,77.1,568.6,74.5,561.5,74.3z"/>
	<path class="st0" d="M482.6,78.3c0-23.6,0-47.2,0-70.7c0-2.5,0-2.5,2.5-2.5c5.8,0,11.5,0,17.2,0c2.4,0,2.4,0,2.4,2.5
		c0,33.7,0,67.3,0,101c0,13.4,0,26.8,0,40.2c0,2.5,0,2.5-2.5,2.5c-5.8,0-11.5,0-17.2,0c-2.4,0-2.4,0-2.4-2.5
		C482.6,125.3,482.6,101.8,482.6,78.3z"/>
</g>
</svg>
