<?xml version="1.0" encoding="utf-8"?>
<!-- Generator: Adobe Illustrator 25.3.1, SVG Export Plug-In . SVG Version: 6.00 Build 0)  -->
<svg version="1.1" id="圖層_1" xmlns="http://www.w3.org/2000/svg" xmlns:xlink="http://www.w3.org/1999/xlink" x="0px" y="0px"
	 viewBox="0 0 132.9 40.75" style="enable-background:new 0 0 132.9 40.75;" xml:space="preserve">
<style type="text/css">
	.st0{fill:#717E56;}
	.st1{fill:#717E56;stroke:#717E56;stroke-width:0.2173;stroke-miterlimit:10;}
	.st2{fill:#B69718;}
</style>
<g>
	<g>
		<path class="st0" d="M4.95,14.52v-2.29H0.38v-0.95h4.57V8.62h1.9v2.66h3.24V8.62h1.9v2.66h4.01v0.95h-4v2.29h-1.9v-2.28H6.86v1.9
			h2.1c1.14,2.66,3.68,4.44,7.62,5.33c-0.51,0.7-0.7,1.52-0.57,2.47c-3.49-0.76-5.9-3.05-7.23-6.86c-0.83,1.66-3.37,3.9-7.62,6.76
			c-0.19,0.13-0.35,0.23-0.48,0.28H0c3.74-2.73,5.96-5.27,6.66-7.62L4.95,14.52L4.95,14.52z M0.38,31.18
			c2.1-1.71,3.3-4.04,3.62-6.95h1.9c-0.07,1.84-1.3,3.81-3.72,5.9c-0.51,0.44-0.89,0.79-1.14,1.04L0.38,31.18L0.38,31.18z
			 M2.47,22.9v-0.95h4.95v-2.86h1.9v2.86h4.76v0.95H9.33v7.14c-0.25,1.08-1.14,1.84-2.66,2.29C6.48,32.13,6.25,32.04,6,32.04
			l-1.04,0.19l-0.19-0.28c1.59-0.32,2.47-0.95,2.66-1.9V22.9L2.47,22.9L2.47,22.9z M13.89,30.8c-1.2-2.29-2.19-4.48-2.95-6.57
			c-0.07-0.19-0.07-0.32,0-0.38c0.07,0,0.19,0.09,0.38,0.28c0.88,0.89,2.03,2.1,3.42,3.62c-0.13-0.12,0,0,0.38,0.38
			C14.95,28.96,14.53,29.85,13.89,30.8z"/>
		<path class="st0" d="M48.45,8.33c0.38,0.19,0.99,0.57,1.81,1.14c-0.07,0.13-0.19,0.19-0.38,0.19c0.32,0.19,0.7,0.35,1.14,0.48
			C51.2,9.38,51.3,8.8,51.3,8.43h2c-0.13,0.7-0.54,1.43-1.24,2.19c0.44,0.19,0.88,0.41,1.34,0.67c0,0.19,0,0.51,0,0.95
			c-0.07,0.44-0.09,0.76-0.09,0.95l-0.09-0.09c-0.07,0-0.09-0.03-0.09-0.09c-0.32,0.76-0.7,1.36-1.14,1.81
			c0.12,0.07,0.28,0.13,0.48,0.19c0.44,0.19,0.76,0.32,0.95,0.38c-0.07,0.38-0.09,1.02-0.09,1.9h2.38l0.09-2h-2.11v-0.84h2.1
			l0.09-1.81h-2.19v-0.87h2.19l0.09-1.52l-2.29-0.09V9.28h2.29V8.71h1.71l-0.28,7.9h1.71v3.14c-0.44-0.57-0.76-0.83-0.95-0.76
			c-0.13,0-0.41,0.41-0.86,1.24v-2H45.11v2H43.4v-3.52h1.71l-0.19-7.9h1.81v1.34c0.19-0.19,0.51-0.51,0.95-0.95
			C48.06,8.75,48.31,8.47,48.45,8.33z M50.92,27.18c-0.44,1.71-2.19,3.36-5.24,4.95c-0.25,0.12-0.44,0.23-0.57,0.28h-1.62
			c3.1-1.2,4.88-2.95,5.33-5.24L50.92,27.18L50.92,27.18z M56.35,18.9v8.28h-1.9v-0.67h-6.38v0.76h-1.9v-8.28h1.9v0.57h6.38V18.9
			C54.45,18.9,56.35,18.9,56.35,18.9z M49.4,9.86c-0.25,0.07-0.86,0.23-1.81,0.48c-0.38,0.07-0.67,0.13-0.86,0.19v1.43h2.19v0.86
			h-2.19l0.09,1.71h2.1v0.86h-2.1v1.9h1.52c0.76-0.51,1.46-1.27,2.1-2.29c-0.07-0.07-0.16-0.16-0.28-0.28
			c-0.7-0.51-1.18-0.88-1.43-1.14v-0.19c0.25,0.13,0.67,0.28,1.24,0.48c0.38,0.19,0.67,0.32,0.86,0.38
			c0.25-0.38,0.38-0.83,0.38-1.34h1.71c-0.57-0.57-1.11-1.04-1.62-1.43c-0.25,0.19-0.64,0.57-1.14,1.14
			c-0.19,0.19-0.35,0.35-0.48,0.48h-0.76c0.83-0.83,1.39-1.55,1.71-2.19C50.25,10.53,49.84,10.18,49.4,9.86z M54.44,20.42h-6.38
			v1.24h5.24v0.86h-5.24v1.04h5.24v0.95h-5.24v1.24h6.38V20.42z M51.11,15.66c-0.7,0.57-1.34,1.11-1.9,1.62h4
			c-0.19-0.19-0.54-0.48-1.04-0.86C51.64,16.05,51.3,15.79,51.11,15.66z M58.25,25.47h0.38l-0.19,2.95h0.48v1.9
			c0.19,1.27-0.35,1.81-1.62,1.62h-3.72c-1.34,0.19-1.9-0.38-1.71-1.71v-3.14h1.9v1.81c-0.13,0.95,0.25,1.36,1.14,1.24h1.52
			c0.83,0.12,1.27-0.23,1.34-1.04L58.25,25.47z"/>
	</g>
	<g>
		<path class="st1" d="M79.69,9.69h-0.14c-0.09-0.21-0.26-0.41-1.12-0.41H76.4v8.09c0,0.57,0.14,0.84,0.65,1.04l-0.03,0.16
			c-0.34-0.03-0.78-0.03-1.14-0.03c-0.34,0-0.82,0.01-1.15,0.03l-0.03-0.16c0.37-0.17,0.53-0.43,0.53-0.95V9.28H73.6
			c-1.17,0-1.55,0.17-1.93,0.44l-0.11-0.09l0.45-1.04c1.49,0.01,2.35,0.03,3.84,0.03c1.68,0,2.64-0.01,4.31-0.03L79.69,9.69z"/>
		<path class="st1" d="M88.62,18.57c-1.18-0.03-1.86-0.03-3.04-0.03c-1.44,0-2.4,0-3.82,0.04l-0.06-0.11
			c0.33-0.2,0.45-0.5,0.45-1.02V9.64c0-0.48-0.09-0.75-0.47-0.92l0.04-0.14c1.39,0.07,1.9,0.06,3.3,0.06c1.28,0,2.49,0,3.77-0.07
			c-0.14,0.24-0.34,0.67-0.44,0.97c-0.16-0.17-0.47-0.24-1.39-0.24h-3.64v3.3h1.55c1.04,0,1.62-0.03,1.95-0.21l0.09,0.07
			c-0.16,0.18-0.37,0.67-0.47,0.97c-0.26-0.14-0.8-0.17-1.56-0.17h-1.55v4.66h3.1c1.85,0,2.4-0.31,2.96-0.87l0.13,0.1
			C89.15,17.57,88.8,18.17,88.62,18.57z"/>
		<path class="st1" d="M100.92,18.57c-0.41-0.04-0.77-0.03-1.29-0.03c-0.48,0-1.04,0-1.49,0.03l-0.04-0.15
			c0.26-0.11,0.45-0.37,0.45-0.6c0-0.26-0.07-0.53-0.26-0.95l-1.28-2.97h-3.27l-1.36,2.79c-0.21,0.44-0.3,0.73-0.3,1.02
			c0,0.38,0.18,0.51,0.55,0.71l-0.04,0.14c-0.48-0.01-0.88-0.03-1.36-0.03c-0.43,0-0.67,0-1.08,0.03l-0.03-0.17
			c0.5-0.17,0.85-0.5,1.22-1.24l3.78-7.51c0.3-0.6,0.43-0.97,0.43-1.31h0.24l3.97,8.9c0.27,0.61,0.61,0.98,1.19,1.18L100.92,18.57z
			 M95.49,10.37l-1.44,2.9h2.67L95.49,10.37z"/>
		<path class="st1" d="M78.74,23.09c-0.31-0.14-0.78-0.21-1.75-0.21h-3v3.44h1.45c0.84,0,1.51-0.08,1.78-0.26l0.1,0.06
			c-0.13,0.19-0.36,0.68-0.45,1c-0.31-0.11-0.84-0.14-1.48-0.14H74v4.07c0,0.53,0.18,0.8,0.57,0.98l-0.01,0.16
			c-0.36-0.01-0.8-0.03-1.15-0.03c-0.31,0-0.64,0-0.95,0.03l-0.04-0.14c0.28-0.11,0.43-0.5,0.43-0.92v-7.85
			c0-0.47-0.14-0.77-0.48-0.91l0.04-0.14c0.82,0.01,1.49,0.01,2.32,0.01c1.85,0,3.07,0,4.52-0.04
			C79.05,22.38,78.86,22.75,78.74,23.09z"/>
		<path class="st1" d="M87.72,32.17c-1.18-0.03-1.86-0.03-3.04-0.03c-1.44,0-2.4,0-3.82,0.04l-0.06-0.11
			c0.33-0.2,0.45-0.5,0.45-1.02v-7.81c0-0.48-0.09-0.75-0.47-0.92l0.04-0.14c1.39,0.07,1.9,0.06,3.3,0.06c1.28,0,2.49,0,3.77-0.07
			c-0.14,0.24-0.34,0.67-0.44,0.97c-0.16-0.17-0.47-0.24-1.39-0.24h-3.65v3.3h1.55c1.04,0,1.62-0.03,1.95-0.21L86,26.06
			c-0.16,0.18-0.37,0.67-0.47,0.97c-0.26-0.14-0.8-0.17-1.56-0.17h-1.56v4.66h3.1c1.85,0,2.4-0.31,2.96-0.87l0.13,0.1
			C88.24,31.16,87.89,31.77,87.72,32.17z"/>
		<path class="st1" d="M97.06,32.17c-1.18-0.03-1.86-0.03-3.04-0.03c-1.44,0-2.4,0-3.82,0.04l-0.06-0.11
			c0.33-0.2,0.45-0.5,0.45-1.02v-7.81c0-0.48-0.09-0.75-0.47-0.92l0.04-0.14c1.39,0.07,1.9,0.06,3.3,0.06c1.28,0,2.49,0,3.77-0.07
			c-0.14,0.24-0.34,0.67-0.44,0.97c-0.16-0.17-0.47-0.24-1.39-0.24h-3.64v3.3h1.55c1.04,0,1.62-0.03,1.95-0.21l0.09,0.07
			c-0.16,0.18-0.37,0.67-0.47,0.97c-0.26-0.14-0.8-0.17-1.56-0.17h-1.55v4.66h3.1c1.85,0,2.4-0.31,2.96-0.87l0.13,0.1
			C97.58,31.16,97.23,31.77,97.06,32.17z"/>
		<path class="st1" d="M106.16,32.17c-1.45-0.01-2.27-0.01-3.72-0.01c-1.14,0-1.83,0-2.91,0.01l-0.03-0.1
			c0.24-0.16,0.44-0.53,0.44-0.94v-7.88c0-0.55-0.11-0.77-0.48-0.9l0.07-0.16c0.26,0.03,0.57,0.03,0.92,0.03
			c0.36,0,0.82,0,1.08-0.03l0.04,0.16c-0.34,0.16-0.47,0.4-0.47,0.81v8.29h3.41c1.39,0,1.79-0.27,2.45-0.91l0.14,0.11
			C106.7,31.14,106.33,31.81,106.16,32.17z"/>
		<path class="st1" d="M110.91,32.17c-0.36-0.03-0.77-0.03-1.12-0.03c-0.41,0-0.81,0-1.18,0.03l-0.03-0.14
			c0.41-0.19,0.61-0.38,0.61-0.88v-7.87c0-0.55-0.17-0.8-0.54-0.94l0.06-0.14c0.36,0.03,0.7,0.03,1.05,0.03c0.36,0,0.8,0,1.12-0.03
			l0.06,0.13c-0.36,0.14-0.58,0.4-0.58,0.85v7.95c0,0.5,0.21,0.71,0.6,0.9L110.91,32.17z"/>
		<path class="st1" d="M121.24,23.21v9l-0.14,0.03c-0.26-0.5-0.8-1.18-1.48-2.09l-5.08-6.61v7.38c0,0.61,0.21,0.91,0.7,1.12
			l-0.04,0.13c-0.27-0.01-0.6-0.03-0.91-0.03c-0.33,0-0.61,0-0.92,0.03l-0.04-0.14c0.26-0.14,0.45-0.4,0.45-0.81v-7.85
			c0-0.5-0.24-0.91-0.6-1.04l0.04-0.13c0.21,0.03,0.6,0.03,0.97,0.03c0.3,0,0.47,0,0.84-0.03c0.1,0.24,0.55,0.85,1.45,2.02
			l4.01,5.22v-6.26c0-0.48-0.18-0.72-0.5-0.85l0.04-0.13c0.31,0.03,0.61,0.03,0.92,0.03c0.27,0,0.51,0,0.77-0.03l0.04,0.13
			C121.39,22.51,121.24,22.74,121.24,23.21z"/>
		<path class="st1" d="M132.23,28.46v2.05c0.13-0.09,0.26-0.17,0.38-0.27l0.16,0.18c-0.97,1.1-2.2,1.82-3.98,1.82
			c-3.01,0-5.15-1.76-5.15-5.04c0-3.01,2.45-5.06,5.01-5.06c1.46,0,2.4,0.33,3.2,0.81c0,0.38,0.06,1.05,0.11,1.42l-0.17,0.07
			c-0.87-1.14-1.76-1.66-3.24-1.66c-2.09,0-3.65,1.69-3.65,4.31c0,3,1.72,4.53,4.12,4.53c0.94,0,1.58-0.16,2.08-0.37v-2.69
			c0-0.53-0.26-0.82-0.67-0.97l0.04-0.16c0.36,0.03,0.82,0.03,1.18,0.03c0.41,0,0.8,0,1.19-0.03l0.06,0.16
			C132.44,27.76,132.23,28,132.23,28.46z"/>
	</g>
	<g>
		<path class="st2" d="M34.77,21.67c-0.06-0.18-0.19-0.2-0.32-0.08c-0.13,0.11-0.27,0.29-0.33,0.35c-0.52,0.42-0.93-0.03-1.02-0.55
			c-0.26-1.66-1.78-2.26-3.3-2.27c-1.17,0-2.72,0.51-3.67-0.39c-0.19-0.18-0.33-0.4-0.39-0.66c-0.09-0.38,0.01-0.78,0.15-1.14
			c0.04-0.12,0.09-0.23,0.11-0.35c0.03-0.15-0.01-0.37-0.22-0.35c-0.14,0.02-0.3,0.19-0.37,0.3c-1.5,2.33-1.62,5.59,0.7,7.18
			c0.05,0.04,0.1,0.06,0.15,0.1c0.02-0.08,0.03-0.16,0.06-0.24c0.03-0.08,0.04-0.17,0.08-0.27c0.04-0.12,0.1-0.22,0.17-0.33
			c-0.05,0-0.08,0-0.13-0.01c-0.01,0-0.02,0.01-0.04,0.01C26.31,23,26.24,23.01,26.17,23c-0.1,0-0.19-0.03-0.28-0.07
			c-0.06-0.04-0.11-0.1-0.14-0.16c-0.02-0.04-0.03-0.07-0.03-0.11c-0.01-0.02-0.01-0.05-0.02-0.07c-0.01-0.14,0.01-0.27,0.1-0.38
			c0.06-0.09,0.15-0.16,0.25-0.21c0.07-0.03,0.15-0.05,0.24-0.06c0.04-0.01,0.07-0.02,0.12-0.03c0.14-0.03,0.29-0.01,0.42,0.04
			c0.01,0,0.02,0,0.03,0l0,0c-0.1-0.14-0.1-0.33-0.07-0.48c0.03-0.13,0.11-0.23,0.21-0.31c0.06-0.06,0.13-0.08,0.21-0.1
			c0.06,0,0.11-0.01,0.16,0c0.08,0,0.16,0.03,0.24,0.07c0.02,0.01,0.06,0.03,0.08,0.04l0,0c0.07,0.04,0.14,0.1,0.19,0.15
			c0.07,0.06,0.12,0.15,0.17,0.23c0.23-0.14,0.49-0.22,0.73-0.25c0.34-0.04,0.53,0.33,0.54,0.65c0,0.3-0.11,0.61-0.32,0.83
			c-0.21,0.22-0.53,0.35-0.79,0.29c-0.01,0.07-0.04,0.14-0.07,0.21c0,0.06-0.01,0.13-0.02,0.19c-0.08,0.41-0.3,0.77-0.57,1.01
			c2.15,0.84,4.68,0.64,6.54-1.39C34.38,22.8,34.92,22.12,34.77,21.67z M29.48,24.07l-0.06,0.13c-0.04,0.06-0.09,0.1-0.13,0.13
			c-0.05,0.04-0.11,0.07-0.18,0.07c-0.07,0.01-0.13,0.01-0.2-0.02c-0.07-0.01-0.13-0.04-0.18-0.09c-0.07-0.06-0.12-0.13-0.17-0.23
			c-0.01-0.05-0.03-0.09-0.04-0.14c-0.02-0.09-0.01-0.2,0.02-0.29c0.03-0.05,0.04-0.09,0.06-0.13c0.04-0.06,0.09-0.1,0.13-0.13
			c0.05-0.04,0.11-0.07,0.18-0.07c0.07-0.01,0.13-0.01,0.2,0.02c0.07,0.01,0.13,0.04,0.18,0.09c0.07,0.06,0.12,0.13,0.17,0.23
			c0.01,0.05,0.03,0.09,0.04,0.14C29.51,23.88,29.51,23.98,29.48,24.07z"/>
	</g>
</g>
</svg>
