<?xml version="1.0" encoding="utf-8"?>
<!-- Generator: Adobe Illustrator 25.3.1, SVG Export Plug-In . SVG Version: 6.00 Build 0)  -->
<svg version="1.1" id="圖層_1" xmlns="http://www.w3.org/2000/svg" xmlns:xlink="http://www.w3.org/1999/xlink" x="0px" y="0px"
	 viewBox="0 0 46.68 20.21" style="enable-background:new 0 0 46.68 20.21;" xml:space="preserve">
<style type="text/css">
	.st0{fill:#707D55;}
	.st1{fill:#B1931D;}
</style>
<g>
	<g>
		<path class="st0" d="M3.99,5.5v-1.8H0.4V2.96h3.59v-2.1h1.49v2.09h2.54V0.86h1.49v2.09h3.15V3.7H9.53v1.8H8.04V3.71H5.49V5.2h1.65
			c0.89,2.09,2.89,3.49,5.99,4.19c-0.4,0.55-0.55,1.2-0.45,1.95C9.94,10.74,8.05,8.94,7,5.95c-0.65,1.3-2.65,3.07-5.99,5.32
			c-0.15,0.1-0.27,0.18-0.38,0.22H0.1C3.05,9.34,4.79,7.35,5.34,5.5L3.99,5.5L3.99,5.5z M0.4,18.6c1.65-1.35,2.6-3.17,2.85-5.47
			h1.49c-0.05,1.45-1.02,3-2.92,4.64c-0.4,0.35-0.7,0.62-0.89,0.82L0.4,18.6L0.4,18.6z M2.05,12.09v-0.75h3.89V9.09h1.49v2.25h3.74
			v0.75H7.44v5.61c-0.2,0.85-0.89,1.45-2.09,1.8c-0.15-0.15-0.33-0.22-0.53-0.22L4,19.42L3.85,19.2c1.25-0.25,1.95-0.75,2.09-1.49
			v-5.61L2.05,12.09L2.05,12.09z M11.03,18.3c-0.95-1.8-1.72-3.52-2.32-5.16c-0.05-0.15-0.05-0.25,0-0.3c0.05,0,0.15,0.07,0.3,0.22
			c0.7,0.7,1.6,1.65,2.69,2.85c-0.1-0.1,0,0,0.3,0.3C11.86,16.86,11.53,17.55,11.03,18.3z"/>
		<path class="st0" d="M38.2,0.64c0.3,0.15,0.78,0.45,1.42,0.89c-0.05,0.1-0.15,0.15-0.3,0.15c0.25,0.15,0.55,0.27,0.89,0.38
			c0.15-0.6,0.22-1.05,0.22-1.35h1.58c-0.1,0.55-0.42,1.12-0.98,1.72c0.35,0.15,0.7,0.33,1.05,0.53c0,0.15,0,0.4,0,0.75
			c-0.05,0.35-0.07,0.6-0.07,0.75l-0.07-0.07c-0.05,0-0.07-0.02-0.07-0.07c-0.25,0.6-0.55,1.07-0.89,1.42
			c0.1,0.05,0.22,0.1,0.38,0.15c0.35,0.15,0.6,0.25,0.75,0.3c-0.05,0.3-0.07,0.8-0.07,1.49h1.87l0.07-1.58h-1.66V5.43h1.65
			l0.07-1.42h-1.72V3.33h1.72l0.07-1.2l-1.8-0.07V1.38h1.8V0.93h1.35l-0.22,6.21h1.35v2.47c-0.35-0.45-0.6-0.65-0.75-0.6
			c-0.1,0-0.33,0.33-0.67,0.98V8.42h-9.59v1.58h-1.35V7.23h1.35l-0.15-6.21h1.42v1.05c0.15-0.15,0.4-0.4,0.75-0.75
			C37.89,0.96,38.09,0.74,38.2,0.64z M40.14,15.46c-0.35,1.35-1.72,2.64-4.12,3.89c-0.2,0.1-0.35,0.18-0.45,0.22H34.3
			c2.44-0.95,3.84-2.32,4.19-4.12L40.14,15.46L40.14,15.46z M44.41,8.94v6.51h-1.49v-0.53H37.9v0.6h-1.49V9.02h1.49v0.45h5.01V8.94
			C42.92,8.94,44.41,8.94,44.41,8.94z M38.94,1.84c-0.2,0.05-0.67,0.18-1.42,0.38c-0.3,0.05-0.53,0.1-0.67,0.15v1.12h1.72v0.67
			h-1.72l0.07,1.35h1.65v0.67h-1.65v1.49h1.2c0.6-0.4,1.15-1,1.65-1.8c-0.05-0.05-0.13-0.13-0.22-0.22c-0.55-0.4-0.92-0.7-1.12-0.89
			V4.61c0.2,0.1,0.53,0.22,0.98,0.38c0.3,0.15,0.53,0.25,0.67,0.3c0.2-0.3,0.3-0.65,0.3-1.05h1.35c-0.45-0.45-0.87-0.82-1.27-1.12
			c-0.2,0.15-0.5,0.45-0.89,0.89c-0.15,0.15-0.27,0.27-0.38,0.38h-0.6c0.65-0.65,1.09-1.22,1.35-1.72
			C39.62,2.36,39.29,2.09,38.94,1.84z M42.91,10.14h-5.01v0.98h4.12v0.67h-4.12v0.82h4.12v0.75h-4.12v0.98h5.01V10.14z M40.29,6.4
			c-0.55,0.45-1.05,0.87-1.49,1.27h3.14C41.79,7.52,41.52,7.29,41.12,7C40.71,6.7,40.44,6.5,40.29,6.4z M45.9,14.11h0.3l-0.15,2.32
			h0.38v1.49c0.15,1-0.27,1.42-1.27,1.27h-2.92c-1.05,0.15-1.49-0.3-1.35-1.35v-2.47h1.49v1.42c-0.1,0.75,0.2,1.07,0.89,0.98h1.2
			c0.65,0.1,1-0.18,1.05-0.82L45.9,14.11z"/>
	</g>
	<g>
		<path class="st1" d="M27.44,11.12c-0.05-0.14-0.15-0.15-0.25-0.07c-0.1,0.09-0.21,0.23-0.26,0.27c-0.41,0.33-0.73-0.02-0.8-0.43
			c-0.2-1.3-1.4-1.78-2.6-1.78c-0.92,0-2.14,0.4-2.89-0.31c-0.15-0.14-0.26-0.31-0.31-0.52c-0.07-0.3,0.01-0.61,0.12-0.89
			c0.03-0.09,0.07-0.18,0.09-0.27c0.02-0.12-0.01-0.29-0.17-0.27C20.26,6.86,20.14,7,20.08,7.09c-1.18,1.83-1.27,4.4,0.55,5.64
			c0.04,0.03,0.08,0.05,0.12,0.08c0.01-0.06,0.02-0.13,0.04-0.19c0.02-0.06,0.03-0.14,0.06-0.21c0.03-0.09,0.08-0.17,0.13-0.26
			c-0.04,0-0.06,0-0.1,0c-0.01,0-0.02,0.01-0.03,0.01c-0.06,0.02-0.11,0.02-0.17,0.02c-0.08,0-0.15-0.02-0.22-0.06
			c-0.04-0.03-0.09-0.08-0.11-0.12c-0.02-0.03-0.03-0.06-0.02-0.08c-0.01-0.02-0.01-0.04-0.02-0.06c0-0.11,0.01-0.21,0.08-0.3
			c0.05-0.07,0.12-0.12,0.2-0.17c0.06-0.03,0.12-0.04,0.19-0.05c0.03-0.01,0.06-0.02,0.09-0.02c0.11-0.02,0.23-0.01,0.33,0.03
			c0.01,0,0.02,0,0.03,0l0,0c-0.08-0.11-0.08-0.26-0.06-0.38c0.02-0.1,0.09-0.18,0.17-0.24c0.05-0.04,0.1-0.06,0.17-0.08
			c0.05,0,0.08-0.01,0.13,0c0.06,0,0.13,0.02,0.19,0.05c0.02,0.01,0.05,0.02,0.06,0.03l0,0c0.05,0.03,0.11,0.08,0.15,0.12
			c0.05,0.05,0.1,0.11,0.13,0.18c0.18-0.11,0.38-0.18,0.58-0.2c0.27-0.03,0.42,0.26,0.43,0.51c0,0.24-0.09,0.48-0.25,0.65
			c-0.16,0.18-0.42,0.28-0.63,0.23c-0.01,0.05-0.03,0.11-0.05,0.16c0,0.05,0,0.1-0.02,0.15c-0.06,0.32-0.24,0.6-0.45,0.8
			c1.69,0.66,3.68,0.51,5.14-1.09C27.14,12.01,27.56,11.48,27.44,11.12z M23.28,13.01l-0.05,0.1c-0.03,0.04-0.07,0.08-0.11,0.11
			c-0.04,0.04-0.08,0.05-0.14,0.06c-0.06,0.01-0.1,0-0.16-0.02c-0.05-0.01-0.1-0.03-0.14-0.07c-0.05-0.05-0.1-0.11-0.13-0.18
			c-0.01-0.04-0.02-0.07-0.03-0.11c-0.02-0.07-0.01-0.16,0.02-0.23c0.02-0.04,0.03-0.07,0.05-0.1c0.03-0.04,0.07-0.08,0.11-0.11
			c0.04-0.04,0.08-0.05,0.14-0.06c0.06-0.01,0.1,0,0.16,0.02c0.05,0.01,0.1,0.03,0.14,0.07c0.05,0.05,0.1,0.11,0.13,0.18
			c0.01,0.04,0.02,0.07,0.03,0.11C23.31,12.86,23.3,12.94,23.28,13.01z"/>
	</g>
</g>
</svg>
