<?xml version="1.0" encoding="utf-8"?>
<!-- Generator: Adobe Illustrator 25.3.1, SVG Export Plug-In . SVG Version: 6.00 Build 0)  -->
<svg version="1.1" id="圖層_1" xmlns="http://www.w3.org/2000/svg" xmlns:xlink="http://www.w3.org/1999/xlink" x="0px" y="0px"
	 viewBox="0 0 133.36 107.89" style="enable-background:new 0 0 133.36 107.89;" xml:space="preserve">
<style type="text/css">
	.st0{fill:#FFFFFF;}
</style>
<g>
	<path class="st0" d="M132.91,63.59c-0.83-2.14-2.43-2.33-4.09-0.88c-1.62,1.41-3.17,3.85-3.97,4.57
		c-6.27,5.63-11.76,0.19-13.05-6.35c-4.13-20.83-23.66-27.5-42.86-26.82c-14.78,0.52-33.98,7.93-46.49-2.9
		c-2.47-2.14-4.42-4.92-5.32-8.06c-1.36-4.74-0.28-9.83,1.29-14.51c0.49-1.46,1.03-2.92,1.2-4.45c0.2-1.82-0.42-4.57-3.04-4.14
		c-1.8,0.3-3.71,2.52-4.58,4C-5.7,34.2-5.44,75.48,24.67,94.23c0.64,0.4,1.31,0.74,1.96,1.13c0.16-1.03,0.31-2.05,0.62-3.14
		c0.23-1.08,0.51-2.19,0.9-3.34c0.5-1.46,1.16-2.86,1.9-4.23c-0.52,0.04-1.04,0.06-1.56-0.01c-0.13,0.05-0.26,0.1-0.39,0.15
		c-0.82,0.27-1.74,0.37-2.58,0.41c-1.32,0.06-2.34-0.32-3.51-0.8c-0.81-0.47-1.43-1.12-1.88-1.94c-0.23-0.43-0.38-0.89-0.47-1.35
		c-0.12-0.29-0.22-0.59-0.26-0.91c-0.21-1.7-0.03-3.4,1.01-4.88c0.8-1.14,1.81-2.11,3.06-2.76c0.95-0.49,1.94-0.8,2.95-0.92
		c0.46-0.17,0.94-0.32,1.43-0.42c1.84-0.37,3.61-0.34,5.3,0.23c0.13,0.01,0.25,0.05,0.38,0.07l-0.01-0.01
		c-1.31-1.76-1.5-4.15-1.17-6.09c0.27-1.63,1.32-3.02,2.56-3.97c0.72-0.66,1.58-1.1,2.58-1.3c0.69-0.07,1.38-0.13,2.07-0.2
		c1.08,0,2.1,0.27,3.07,0.8c0.35,0.13,0.67,0.31,0.99,0.49c-0.01-0.02-0.02-0.04-0.03-0.06c0.93,0.44,1.71,1.15,2.49,1.83
		c0.91,0.78,1.64,1.75,2.19,2.8c2.77-1.98,5.98-3.06,9.12-3.57c4.2-0.68,6.95,3.79,7.17,7.95c0.21,3.8-1.03,7.81-3.46,10.65
		c-2.56,2.99-6.44,4.68-9.94,4.17c-0.2,0.86-0.46,1.73-0.8,2.6c-0.02,0.78-0.04,1.57-0.17,2.42c-0.78,5.16-3.41,9.91-6.64,13.18
		c27.56,9.49,59.36,5.55,81.71-21.02C128.69,78.12,135.11,69.28,132.91,63.59z M67.5,96.82l-0.69,1.67
		c-0.42,0.79-0.98,1.4-1.69,1.82c-0.62,0.55-1.34,0.9-2.15,1.04c-0.82,0.21-1.64,0.18-2.45-0.1c-0.85-0.12-1.65-0.47-2.37-1.06
		c-0.94-0.72-1.67-1.63-2.2-2.75c-0.19-0.57-0.39-1.14-0.58-1.71c-0.27-1.25-0.24-2.47,0.08-3.66c0.23-0.56,0.46-1.12,0.69-1.67
		c0.42-0.79,0.98-1.4,1.69-1.82c0.62-0.55,1.34-0.9,2.15-1.04c0.82-0.21,1.64-0.18,2.45,0.1c0.85,0.12,1.65,0.47,2.37,1.06
		c0.94,0.72,1.67,1.63,2.2,2.75c0.19,0.57,0.39,1.14,0.58,1.71C67.85,94.4,67.82,95.62,67.5,96.82z"/>
</g>
</svg>
